<?xml version="1.0" encoding="UTF-8"?>
<svg width="400" height="400" viewBox="0 0 400 400" xmlns="http://www.w3.org/2000/svg">
  <!-- Fundo -->
  <rect width="400" height="400" fill="#ecfdf5" rx="20" ry="20"/>
  
  <!-- Prateleira -->
  <rect x="50" y="100" width="300" height="20" fill="#064e3b"/>
  <rect x="60" y="120" width="10" height="200" fill="#064e3b"/>
  <rect x="330" y="120" width="10" height="200" fill="#064e3b"/>
  
  <!-- Frascos de suplementos -->
  <rect x="80" y="50" width="40" height="80" rx="5" ry="5" fill="#10b981"/>
  <rect x="85" y="40" width="30" height="10" rx="3" ry="3" fill="#10b981"/>
  <rect x="90" y="60" width="20" height="30" fill="white" opacity="0.7"/>
  <text x="100" y="80" font-family="Arial" font-size="8" text-anchor="middle" fill="#064e3b">Energia</text>
  
  <rect x="140" y="50" width="40" height="80" rx="5" ry="5" fill="#f59e0b"/>
  <rect x="145" y="40" width="30" height="10" rx="3" ry="3" fill="#f59e0b"/>
  <rect x="150" y="60" width="20" height="30" fill="white" opacity="0.7"/>
  <text x="160" y="80" font-family="Arial" font-size="8" text-anchor="middle" fill="#78350f">Foco</text>
  
  <rect x="200" y="50" width="40" height="80" rx="5" ry="5" fill="#8b5cf6"/>
  <rect x="205" y="40" width="30" height="10" rx="3" ry="3" fill="#8b5cf6"/>
  <rect x="210" y="60" width="20" height="30" fill="white" opacity="0.7"/>
  <text x="220" y="80" font-family="Arial" font-size="8" text-anchor="middle" fill="#4c1d95">Calma</text>
  
  <rect x="260" y="50" width="40" height="80" rx="5" ry="5" fill="#ef4444"/>
  <rect x="265" y="40" width="30" height="10" rx="3" ry="3" fill="#ef4444"/>
  <rect x="270" y="60" width="20" height="30" fill="white" opacity="0.7"/>
  <text x="280" y="80" font-family="Arial" font-size="8" text-anchor="middle" fill="#7f1d1d">Vitalidade</text>
  
  <!-- Plantas medicinais -->
  <ellipse cx="100" cy="250" rx="30" ry="10" fill="#064e3b"/>
  <path d="M85,250 C85,230 95,200 100,180 C105,200 115,230 115,250 Z" fill="#10b981"/>
  <path d="M95,250 C95,235 90,210 85,195 C80,210 75,235 75,250 Z" fill="#10b981"/>
  <path d="M105,250 C105,235 110,210 115,195 C120,210 125,235 125,250 Z" fill="#10b981"/>
  
  <ellipse cx="180" cy="250" rx="30" ry="10" fill="#064e3b"/>
  <path d="M165,250 C165,230 175,200 180,180 C185,200 195,230 195,250 Z" fill="#10b981"/>
  <path d="M175,250 C175,235 170,210 165,195 C160,210 155,235 155,250 Z" fill="#10b981"/>
  <path d="M185,250 C185,235 190,210 195,195 C200,210 205,235 205,250 Z" fill="#10b981"/>
  
  <!-- Pessoa -->
  <circle cx="300" cy="250" r="40" fill="#fef3c7"/>
  <circle cx="300" cy="190" r="30" fill="#fef3c7"/>
  
  <!-- Cabelo -->
  <path d="M270,180 C270,160 280,150 300,150 C320,150 330,160 330,180 C330,180 320,170 300,170 C280,170 270,180 270,180 Z" fill="#a16207"/>
  
  <!-- Olhos -->
  <circle cx="290" cy="185" r="3" fill="#1e293b"/>
  <circle cx="310" cy="185" r="3" fill="#1e293b"/>
  
  <!-- Boca - sorriso saudável -->
  <path d="M285,200 Q300,210 315,200" stroke="#9d174d" stroke-width="2" fill="none"/>
  
  <!-- Braços -->
  <rect x="260" y="220" width="15" height="60" rx="7" ry="7" fill="#fef3c7" transform="rotate(-30 260 220)"/>
  <rect x="340" y="220" width="15" height="60" rx="7" ry="7" fill="#fef3c7" transform="rotate(30 340 220)"/>
  
  <!-- Símbolo de saúde -->
  <circle cx="300" cy="300" r="30" fill="#10b981" opacity="0.3"/>
  <rect x="290" y="280" width="20" height="40" rx="5" ry="5" fill="#10b981"/>
  <rect x="280" y="290" width="40" height="20" rx="5" ry="5" fill="#10b981"/>
  
  <!-- Texto -->
  <text x="200" y="350" font-family="Arial" font-size="16" font-weight="bold" text-anchor="middle" fill="#064e3b">Suplementos Naturais</text>
</svg>
