<?xml version="1.0" encoding="UTF-8"?>
<svg width="400" height="400" viewBox="0 0 400 400" xmlns="http://www.w3.org/2000/svg">
  <!-- Fundo do avatar -->
  <circle cx="200" cy="200" r="200" fill="#fef9c3"/>
  
  <!-- Rosto -->
  <circle cx="200" cy="180" r="120" fill="#fef3c7"/>
  
  <!-- Cabelo -->
  <path d="M200,60 C130,60 80,120 80,190 C80,190 100,170 120,160 C140,150 160,145 200,145 C240,145 260,150 280,160 C300,170 320,190 320,190 C320,120 270,60 200,60 Z" fill="#854d0e"/>
  <path d="M120,160 C140,150 160,145 200,145 C240,145 260,150 280,160 C280,160 260,180 200,180 C140,180 120,160 120,160 Z" fill="#854d0e"/>
  
  <!-- Olhos -->
  <circle cx="150" cy="160" r="15" fill="#ffffff"/>
  <circle cx="250" cy="160" r="15" fill="#ffffff"/>
  <circle cx="150" cy="160" r="7" fill="#1e293b"/>
  <circle cx="250" cy="160" r="7" fill="#1e293b"/>
  
  <!-- Sobrancelhas -->
  <path d="M130,130 Q150,120 170,130" stroke="#854d0e" stroke-width="5" fill="none"/>
  <path d="M230,130 Q250,120 270,130" stroke="#854d0e" stroke-width="5" fill="none"/>
  
  <!-- Boca - sorriso -->
  <path d="M150,220 Q200,250 250,220" stroke="#9d174d" stroke-width="5" fill="none"/>
  
  <!-- Blusa -->
  <path d="M100,300 L120,240 L280,240 L300,300 Z" fill="#eab308"/>
  
  <!-- Colar -->
  <path d="M180,240 L200,260 L220,240" stroke="#fbbf24" stroke-width="3" fill="none"/>
  <circle cx="200" cy="260" r="3" fill="#fbbf24"/>
  
  <!-- Texto de melhoria de vida -->
  <rect x="50" y="320" width="300" height="60" rx="10" fill="#ca8a04"/>
  <text x="200" y="355" font-family="Arial" font-size="16" fill="white" text-anchor="middle">Superei o burnout e recuperei minha energia!</text>
</svg>
