<?xml version="1.0" encoding="UTF-8"?>
<svg width="400" height="400" viewBox="0 0 400 400" xmlns="http://www.w3.org/2000/svg">
  <!-- Fundo do avatar -->
  <circle cx="200" cy="200" r="200" fill="#dcfce7"/>
  
  <!-- Rosto -->
  <circle cx="200" cy="180" r="120" fill="#fef3c7"/>
  
  <!-- Cabelo -->
  <path d="M200,60 C130,60 80,120 80,190 C80,190 120,170 200,170 C280,170 320,190 320,190 C320,120 270,60 200,60 Z" fill="#3f3f46"/>
  <path d="M80,190 C80,190 100,150 120,130 C140,110 170,100 200,100 C230,100 260,110 280,130 C300,150 320,190 320,190 L320,210 L80,210 Z" fill="#3f3f46"/>
  
  <!-- Olhos -->
  <circle cx="150" cy="160" r="15" fill="#ffffff"/>
  <circle cx="250" cy="160" r="15" fill="#ffffff"/>
  <circle cx="150" cy="160" r="7" fill="#1e293b"/>
  <circle cx="250" cy="160" r="7" fill="#1e293b"/>
  
  <!-- Sobrancelhas -->
  <path d="M130,130 Q150,120 170,130" stroke="#3f3f46" stroke-width="5" fill="none"/>
  <path d="M230,130 Q250,120 270,130" stroke="#3f3f46" stroke-width="5" fill="none"/>
  
  <!-- Boca - sorriso -->
  <path d="M150,220 Q200,250 250,220" stroke="#9d174d" stroke-width="5" fill="none"/>
  
  <!-- Camisa -->
  <path d="M100,300 L120,240 L280,240 L300,300 Z" fill="#16a34a"/>
  
  <!-- Óculos -->
  <circle cx="150" cy="160" r="25" stroke="#3f3f46" stroke-width="3" fill="none"/>
  <circle cx="250" cy="160" r="25" stroke="#3f3f46" stroke-width="3" fill="none"/>
  <path d="M175,160 L225,160" stroke="#3f3f46" stroke-width="3" fill="none"/>
  
  <!-- Texto de melhoria de vida -->
  <rect x="50" y="320" width="300" height="60" rx="10" fill="#16a34a"/>
  <text x="200" y="355" font-family="Arial" font-size="16" fill="white" text-anchor="middle">Melhorei meu equilíbrio trabalho-vida!</text>
</svg>
