<?xml version="1.0" encoding="UTF-8"?>
<svg width="400" height="400" viewBox="0 0 400 400" xmlns="http://www.w3.org/2000/svg">
  <!-- Fundo do avatar -->
  <circle cx="200" cy="200" r="200" fill="#ffedd5"/>
  
  <!-- Rosto -->
  <circle cx="200" cy="180" r="120" fill="#fef3c7"/>
  
  <!-- Cabelo -->
  <path d="M120,100 C140,80 170,70 200,70 C230,70 260,80 280,100 C300,120 310,150 310,180 C310,180 280,170 200,170 C120,170 90,180 90,180 C90,150 100,120 120,100 Z" fill="#0c4a6e"/>
  
  <!-- Olhos -->
  <circle cx="150" cy="160" r="15" fill="#ffffff"/>
  <circle cx="250" cy="160" r="15" fill="#ffffff"/>
  <circle cx="150" cy="160" r="7" fill="#1e293b"/>
  <circle cx="250" cy="160" r="7" fill="#1e293b"/>
  
  <!-- Sobrancelhas -->
  <path d="M130,130 Q150,120 170,130" stroke="#0c4a6e" stroke-width="5" fill="none"/>
  <path d="M230,130 Q250,120 270,130" stroke="#0c4a6e" stroke-width="5" fill="none"/>
  
  <!-- Boca - sorriso -->
  <path d="M150,220 Q200,250 250,220" stroke="#9d174d" stroke-width="5" fill="none"/>
  
  <!-- Camisa -->
  <path d="M100,300 L120,240 L280,240 L300,300 Z" fill="#f97316"/>
  
  <!-- Texto de melhoria de vida -->
  <rect x="50" y="320" width="300" height="60" rx="10" fill="#ea580c"/>
  <text x="200" y="355" font-family="Arial" font-size="16" fill="white" text-anchor="middle">Superei a ansiedade social e fui promovido!</text>
</svg>
