<?xml version="1.0" encoding="UTF-8"?>
<svg width="400" height="400" viewBox="0 0 400 400" xmlns="http://www.w3.org/2000/svg">
  <!-- Fundo do avatar -->
  <circle cx="200" cy="200" r="200" fill="#f3e8ff"/>
  
  <!-- Rosto -->
  <circle cx="200" cy="180" r="120" fill="#fce7f3"/>
  
  <!-- Cabelo -->
  <path d="M200,60 C130,60 80,120 80,190 C80,190 120,170 200,170 C280,170 320,190 320,190 C320,120 270,60 200,60 Z" fill="#7e22ce"/>
  
  <!-- Olhos -->
  <circle cx="150" cy="160" r="15" fill="#ffffff"/>
  <circle cx="250" cy="160" r="15" fill="#ffffff"/>
  <circle cx="150" cy="160" r="7" fill="#1e293b"/>
  <circle cx="250" cy="160" r="7" fill="#1e293b"/>
  
  <!-- Sobrancelhas -->
  <path d="M130,130 Q150,120 170,130" stroke="#7e22ce" stroke-width="5" fill="none"/>
  <path d="M230,130 Q250,120 270,130" stroke="#7e22ce" stroke-width="5" fill="none"/>
  
  <!-- Boca - sorriso -->
  <path d="M150,220 Q200,250 250,220" stroke="#9d174d" stroke-width="5" fill="none"/>
  
  <!-- Blusa -->
  <path d="M100,300 L120,240 L280,240 L300,300 Z" fill="#a855f7"/>
  
  <!-- Colar -->
  <path d="M180,240 L200,260 L220,240" stroke="#fbbf24" stroke-width="3" fill="none"/>
  <circle cx="200" cy="260" r="3" fill="#fbbf24"/>
  
  <!-- Texto de melhoria de vida -->
  <rect x="50" y="320" width="300" height="60" rx="10" fill="#7e22ce"/>
  <text x="200" y="355" font-family="Arial" font-size="16" fill="white" text-anchor="middle">Superei a ansiedade e encontrei meu propósito!</text>
</svg>
